<svg width="16" height="16" viewBox="0 0 16 16" fill="none" xmlns="http://www.w3.org/2000/svg">
<g opacity="0.75">
<path d="M12.8942 9.9526C13.3007 8.86596 13.4339 7.69604 13.2819 6.54584C13.0062 4.57291 11.9514 3.05722 9.98772 1.98153C7.47388 0.604297 4.08003 1.08984 2.04926 3.11568C0.923107 4.2406 0.24126 6.10584 1.14588 7.41476C1.80188 8.36368 3.06772 8.70707 3.81234 9.5883C4.74403 10.6886 4.67388 12.3877 5.59695 13.4935C6.41726 14.4738 7.89357 14.7409 9.10464 14.3391C10.1206 14.0031 11.9539 12.52 12.8942 9.9526Z" fill="#5493F7"/>
</g>
<g opacity="0.8">
<path d="M9.10766 14.3385C10.1212 14.0025 11.9544 12.5194 12.8954 9.95199C13.2935 8.86399 13.5107 7.8166 13.2824 6.54522C12.5267 2.34645 7.38458 7.74707 6.49782 8.29537C4.74766 9.37722 4.26458 11.7489 5.5132 13.3852C5.54212 13.4228 5.57043 13.4591 5.59935 13.4935C6.41782 14.4738 7.89412 14.7409 9.10766 14.3385Z" fill="#2043B5"/>
</g>
<g opacity="0.7">
<path d="M10.7077 2.6326C9.62105 2.22607 8.45112 2.09293 7.30092 2.24491C5.32615 2.52306 3.81046 3.57537 2.73477 5.53845C1.35815 8.0523 1.84308 11.4461 3.86892 13.4769C4.99384 14.6031 6.85908 15.2855 8.16861 14.3809C9.11692 13.7255 9.46092 12.4597 10.3415 11.7144C11.4418 10.7828 13.1409 10.8529 14.2468 9.92983C15.2271 9.10953 15.4942 7.63383 15.0923 6.42214C14.7563 5.40614 13.2732 3.57291 10.7077 2.6326Z" fill="#3573EC"/>
</g>
<path d="M8.45356 10.9274L7.45479 8.90831L6.78402 9.52369L6.48494 10.9305H5.34094L6.43387 5.76123H7.58587L7.1551 7.77292L9.35633 5.76123H10.9459L8.35079 8.10831L9.82279 10.9292L8.45356 10.9274Z" fill="white"/>
</svg>
