<svg width="111" height="18" viewBox="0 0 111 18" fill="none" xmlns="http://www.w3.org/2000/svg">
<g clip-path="url(#clip0_8979_14497)">
<path d="M25.0939 9.78654L23.5673 9.51657C22.1665 9.25803 21.3188 8.47187 21.3188 7.14225C21.3188 5.4345 22.498 4.57446 24.5012 4.57446C26.4913 4.57446 27.667 5.44681 27.667 7.17918V7.33923H26.2125V7.18182C26.2125 6.29717 25.6101 5.84253 24.5048 5.84253C23.3862 5.84253 22.8207 6.23561 22.8207 7.0464C22.8207 7.67339 23.2604 8.05416 23.927 8.17728L25.4501 8.44725C26.909 8.71722 27.7004 9.50426 27.7004 10.8066C27.7004 12.5654 26.4842 13.4236 24.4942 13.4236C22.5042 13.4236 21.2871 12.5513 21.2871 10.8189V10.6589H22.7495V10.8163C22.7495 11.7009 23.3879 12.1433 24.4942 12.1433C25.6005 12.1433 26.202 11.7739 26.202 10.9121C26.2002 10.2781 25.7579 9.90965 25.0939 9.78654Z" fill="white"/>
<path d="M36.0299 13.3007C33.9783 13.3007 32.676 12.219 32.676 10.1921V7.79575C32.676 5.7811 33.9783 4.69946 36.0545 4.69946H38.5731V5.96577H36.0545C34.863 5.96577 34.1375 6.61651 34.1375 7.79575V8.3612H37.9584V9.62662H34.1375V10.1921C34.1375 11.3836 34.863 12.0229 36.0299 12.0229H38.5731V13.3007H36.0299Z" fill="white"/>
<path d="M43.5494 4.69946H46.9658C48.5997 4.69946 49.8159 5.56037 49.8159 7.26813C49.8159 8.33657 49.4228 9.11043 48.7466 9.54132C49.4967 9.90978 49.9021 10.6713 49.9021 11.7283V13.3007H48.4027V11.5314C48.4027 10.6836 47.9727 10.2413 47.1373 10.2413H45.0118V13.3007H43.5494V4.69946ZM46.9166 8.97588C47.7643 8.97588 48.3042 8.55818 48.3042 7.46423C48.3042 6.37028 47.7643 5.96929 46.9166 5.96929H45.0118V8.9794L46.9166 8.97588Z" fill="white"/>
<path d="M61.4395 4.69946V10.3767C61.4395 12.3668 60.1495 13.4238 58.1102 13.4238C56.0947 13.4238 54.8046 12.3685 54.8046 10.3767V4.69946H56.267V10.3767C56.267 11.5314 56.9793 12.146 58.1137 12.146C59.2684 12.146 59.9807 11.5305 59.9807 10.3767V4.69946H61.4395Z" fill="white"/>
<path d="M72.5716 7.57503L70.2254 11.9983L67.8784 7.57503V13.3007H66.416V4.69946H67.8291L70.2254 9.22123L72.6209 4.69946H74.034V13.3007H72.5716V7.57503Z" fill="white"/>
<path d="M5.89182 2.71024C5.97976 2.61 6.22862 2.33387 6.49683 2.04104C6.66831 1.85373 6.85474 1.64971 6.97961 1.51341L7.48174 2.1237L7.07195 2.56779C6.8222 2.84127 6.56279 3.12443 6.49068 3.21149C4.66069 5.40026 2.76475 7.6629 2.76475 10.1929C2.76475 11.7758 3.41197 13.1555 4.5877 14.0824C5.55502 14.8457 6.82748 15.2669 8.17029 15.2669C9.5131 15.2669 10.7838 14.8457 11.752 14.0824C12.9277 13.1555 13.5749 11.774 13.5749 10.1929C13.5749 7.6629 11.6808 5.40026 9.84902 3.21149C9.77691 3.12355 9.51838 2.84127 9.26775 2.56779L8.85884 2.12018L9.36097 1.50989C9.48584 1.64971 9.67315 1.85373 9.84375 2.03752C10.1076 2.33035 10.3643 2.60648 10.4488 2.70673C12.3693 5.00191 14.3558 7.37535 14.3558 10.1894C14.3558 12.0149 13.6031 13.6137 12.2357 14.6927C11.1303 15.5641 9.68546 16.0443 8.17029 16.0443C6.65512 16.0443 5.20942 15.565 4.10404 14.6962C2.73661 13.6172 1.98386 12.0185 1.98386 10.1929C1.98386 7.37887 3.97038 5.00542 5.89182 2.71024ZM7.38676 3.96336L7.65058 3.65382L7.87306 3.39L8.17381 3.0277L8.47368 3.39L8.69616 3.65382L8.9547 3.96336C9.3425 4.42679 9.73295 4.89374 10.1049 5.36333L10.2131 5.50051C11.249 6.81958 12.1213 8.16855 12.3491 9.51927C12.3649 9.61249 12.3772 9.7057 12.3869 9.79891C12.3869 9.83145 12.3913 9.86487 12.3939 9.89828C12.4019 9.99677 12.4071 10.0944 12.4071 10.1929C12.4082 10.4882 12.3787 10.7829 12.3192 11.0723C12.2864 11.228 12.2441 11.3816 12.1926 11.5322C11.9716 12.1755 11.5679 12.7406 11.0309 13.1581C10.5322 13.5443 9.95501 13.8165 9.33986 13.9557C9.25193 13.9768 9.15695 13.9953 9.06462 14.012L8.96613 14.0278C8.87819 14.0419 8.78322 14.0542 8.69 14.063C8.34883 14.0982 8.00494 14.0982 7.66377 14.063C7.55824 14.0533 7.4536 14.0393 7.35071 14.0226L7.3041 14.0147C6.58198 13.8976 5.90026 13.603 5.32022 13.1573C4.78322 12.7397 4.37954 12.1747 4.15857 11.5313C4.10494 11.3838 4.06031 11.2331 4.0249 11.0802C3.9654 10.7909 3.93593 10.4962 3.93696 10.2008C3.93696 10.1023 3.93696 10.0047 3.94927 9.9062C3.94927 9.87278 3.95367 9.83937 3.95631 9.80683C3.96598 9.71362 3.97829 9.6204 3.99412 9.52719C4.221 8.16855 5.09422 6.8231 6.13013 5.50051L6.2383 5.36421C6.61027 4.89374 7.00072 4.42679 7.38676 3.96336ZM8.17029 13.3138C9.04175 13.3138 9.88684 13.05 10.4998 12.5813L10.5429 12.5496C11.0331 12.1662 11.379 11.6281 11.5242 11.023C11.5348 10.9817 11.5445 10.9403 11.5524 10.8981C11.5769 10.784 11.5954 10.6686 11.6078 10.5525C11.6192 10.4347 11.6245 10.3142 11.6245 10.1911C11.6245 10.1155 11.6245 10.0399 11.6148 9.96336C11.5991 9.74836 11.5638 9.53525 11.5093 9.32669C11.4333 9.03642 11.3321 8.75336 11.2068 8.48073C11.2015 8.46842 11.1962 8.45522 11.1901 8.44291C11.0775 8.20193 10.9528 7.96684 10.8163 7.73853L10.8084 7.72446C10.4822 7.18083 10.1224 6.65806 9.73119 6.15917C9.70217 6.12135 9.67227 6.08354 9.64325 6.04485C9.51427 5.87952 9.38295 5.7145 9.24929 5.54976L9.12969 5.4029L9.10155 5.36773L9.03472 5.28682C8.88698 5.10655 8.73661 4.92628 8.58712 4.74689L8.35408 4.4646C8.2934 4.39162 8.23273 4.31951 8.17293 4.24652L7.9909 4.4646L7.75083 4.74864C7.60133 4.92452 7.45096 5.10831 7.30322 5.28858L7.23639 5.36949C7.2276 5.3818 7.21792 5.39323 7.20825 5.40466L7.08865 5.55152C6.51612 6.23757 5.99471 6.96471 5.52864 7.7271L5.52072 7.74117C5.38354 7.97684 5.25691 8.21164 5.15226 8.44467C5.14611 8.45698 5.14171 8.47017 5.13555 8.48249C5.01146 8.75523 4.91142 9.0383 4.83657 9.32845C4.78249 9.5371 4.74717 9.75017 4.73104 9.96512C4.72488 10.0416 4.72137 10.1173 4.72137 10.1929C4.72096 10.3136 4.72683 10.4342 4.73895 10.5543C4.74976 10.6698 4.76708 10.7846 4.79084 10.8981C4.79875 10.9403 4.80843 10.9817 4.81898 11.023C4.96463 11.628 5.31047 12.1659 5.80036 12.5496L5.84345 12.5813C6.45286 13.0473 7.29883 13.3138 8.17029 13.3138ZM11.9463 1.45713C11.8672 1.36304 11.6298 1.10538 11.2481 0.698227C11.0019 0.434413 10.7284 0.139821 10.6027 0L10.1014 0.609409C10.2289 0.75011 10.4224 0.961161 10.6765 1.23025C10.9579 1.53188 11.2763 1.87396 11.3466 1.95838C13.3067 4.30016 15.528 6.95413 15.528 10.1929C15.528 12.3843 14.6161 14.3101 12.9611 15.616C11.6509 16.6502 9.94839 17.2191 8.17029 17.2191C6.39219 17.2191 4.68971 16.6502 3.37856 15.616C1.72357 14.3101 0.812529 12.3843 0.812529 10.1929C0.812529 6.95413 3.03296 4.30104 4.99309 1.95838C5.06345 1.87044 5.38178 1.53188 5.66318 1.23025C5.91732 0.957643 6.11079 0.75011 6.2383 0.609409L5.73705 0C5.6113 0.139821 5.33781 0.433534 5.09159 0.698227C4.70994 1.10714 4.47602 1.36304 4.39336 1.45713C2.3488 3.90004 0.0307617 6.67009 0.0307617 10.1929C0.0307617 12.6288 1.0482 14.7727 2.8949 16.2289C4.34323 17.3721 6.21631 18 8.17117 18C10.126 18 11.9982 17.3712 13.4474 16.2289C15.2941 14.7727 16.3107 12.6288 16.3107 10.1929C16.3089 6.67009 13.9909 3.90004 11.9463 1.45713Z" fill="white"/>
</g>
<path d="M82.034 13H85.0169C87.5311 13 89.2683 11.2514 89.2683 9V8.97714C89.2683 6.72571 87.5311 5 85.0169 5H82.034V13ZM85.0169 6.28C86.6969 6.28 87.794 7.43429 87.794 9V9.02286C87.794 10.5886 86.6969 11.72 85.0169 11.72H83.4397V6.28H85.0169Z" fill="white"/>
<path d="M93.2594 13H99.248V11.7429H94.6652V9.59429H98.6766V8.33714H94.6652V6.25714H99.1909V5H93.2594V13Z" fill="white"/>
<path d="M108.356 5L106.356 7.90286L104.367 5H102.71L105.487 8.93143L102.596 13H104.207L106.31 9.94857L108.424 13H110.081L107.179 8.90857L109.967 5H108.356Z" fill="white"/>
<defs>
<clipPath id="clip0_8979_14497">
<rect width="74.034" height="18" fill="white"/>
</clipPath>
</defs>
</svg>
