<svg width="148" height="30" viewBox="0 0 148 30" fill="none" xmlns="http://www.w3.org/2000/svg">
<g filter="url(#filter0_d_9309_14062)">
<path d="M38.4718 12.544H36.7136L35.1422 18.5549L33.6147 12.544H31.8125L34.2191 20.456H36.0652L38.4718 12.544Z" fill="white"/>
<path d="M44.9724 20.456V17.7198L47.412 12.544H45.6757L44.1812 15.9286L42.6867 12.544H40.9505L43.39 17.7198V20.456H44.9724Z" fill="white"/>
<path d="M50.5396 12.544V20.456H54.6275C55.5506 20.456 56.1879 19.8187 56.1879 18.8956V17.5989C56.1879 17.1264 55.9572 16.6758 55.4077 16.4121C55.9132 16.1154 56.1 15.6978 56.1 15.2253V14.1044C56.1 13.1813 55.4627 12.544 54.5396 12.544H50.5396ZM52.122 15.7088V14.0165H54.144C54.3857 14.0165 54.5176 14.1484 54.5176 14.3901V15.3352C54.5176 15.6429 54.4297 15.7088 54.144 15.7088H52.122ZM52.122 18.9835V17.1154H54.1C54.4077 17.1154 54.6055 17.1374 54.6055 17.467V18.6099C54.6055 18.8516 54.4736 18.9835 54.2319 18.9835H52.122Z" fill="white"/>
<path d="M59.8738 12.544V20.456H65.0496V18.9615H61.4562V17.1593H64.3683V15.6648L61.4562 15.6648V14.0385L65.0496 14.0385V12.544L59.8738 12.544Z" fill="white"/>
<path d="M78.3499 12.544V17.9396L75.4378 12.544H73.7346V20.456H75.2181V15.0604L78.1301 20.456H79.8334V12.544H78.3499Z" fill="white"/>
<path d="M83.7663 12.544V20.456H88.9421V18.9615H85.3487V17.1593H88.2608V15.6648H85.3487V14.0385H88.9421V12.544H83.7663Z" fill="white"/>
<path d="M97.6526 14.0165V12.544H91.9384V14.0165L94.0043 14.0165V20.456H95.5867V14.0165H97.6526Z" fill="white"/>
<path d="M107.942 20.456L109.909 12.544H108.282L107.206 18.3242L105.777 12.544H104.524L103.096 18.3242L102.019 12.544L100.326 12.544L102.293 20.456H103.854L105.151 15.2473L106.447 20.456H107.942Z" fill="white"/>
<path d="M114.42 12.5C113.497 12.5 112.859 13.1374 112.859 14.0604V18.9396C112.859 19.8626 113.497 20.5 114.42 20.5L117.068 20.5C117.991 20.5 118.628 19.8626 118.628 18.9396V14.0604C118.628 13.1374 117.991 12.5 117.068 12.5H114.42ZM117.046 18.6319C117.046 18.8736 116.914 19.0055 116.672 19.0055H114.815C114.573 19.0055 114.442 18.8736 114.442 18.6319V14.3681C114.442 14.1264 114.573 13.9945 114.815 13.9945H116.672C116.914 13.9945 117.046 14.1264 117.046 14.3681V18.6319Z" fill="white"/>
<path d="M128.215 20.456L126.897 17.456C127.556 17.2692 127.974 16.7088 127.974 15.9615V14.1044C127.974 13.1813 127.336 12.544 126.413 12.544H122.38V20.456H123.963V17.522H125.237L126.512 20.456H128.215ZM126.391 15.6758C126.391 15.9176 126.259 16.0495 126.018 16.0495H123.963V14.0385H126.018C126.259 14.0385 126.391 14.1703 126.391 14.4121V15.6758Z" fill="white"/>
<path d="M134.396 17.0165L136.22 20.456H138L135.45 15.6648L137.879 12.544L136.022 12.544L133.286 16.2582V12.544H131.725V20.456H133.286V18.4341L134.396 17.0165Z" fill="white"/>
</g>
<g filter="url(#filter1_d_9309_14062)">
<path d="M22.8511 10.5L16.457 20.2455L17.9356 22.5L25.8131 10.5H22.8511Z" fill="url(#paint0_linear_9309_14062)"/>
<path d="M14.317 10.5H10.0625L12.1873 13.7436L14.317 10.5Z" fill="white"/>
<path d="M14.7577 11.1641L12.6279 14.4077L14.1065 16.6622L16.2362 13.4138L14.7577 11.1641Z" fill="url(#paint1_linear_9309_14062)"/>
<path d="M19.0218 10.5L13.0635 19.5812L14.542 21.8358L21.974 10.5H19.0218Z" fill="url(#paint2_linear_9309_14062)"/>
</g>
<defs>
<filter id="filter0_d_9309_14062" x="21.8125" y="2.5" width="126.188" height="28" filterUnits="userSpaceOnUse" color-interpolation-filters="sRGB">
<feFlood flood-opacity="0" result="BackgroundImageFix"/>
<feColorMatrix in="SourceAlpha" type="matrix" values="0 0 0 0 0 0 0 0 0 0 0 0 0 0 0 0 0 0 127 0" result="hardAlpha"/>
<feOffset/>
<feGaussianBlur stdDeviation="5"/>
<feComposite in2="hardAlpha" operator="out"/>
<feColorMatrix type="matrix" values="0 0 0 0 1 0 0 0 0 1 0 0 0 0 1 0 0 0 0.2 0"/>
<feBlend mode="normal" in2="BackgroundImageFix" result="effect1_dropShadow_9309_14062"/>
<feBlend mode="normal" in="SourceGraphic" in2="effect1_dropShadow_9309_14062" result="shape"/>
</filter>
<filter id="filter1_d_9309_14062" x="0.0625" y="0.5" width="35.7507" height="32" filterUnits="userSpaceOnUse" color-interpolation-filters="sRGB">
<feFlood flood-opacity="0" result="BackgroundImageFix"/>
<feColorMatrix in="SourceAlpha" type="matrix" values="0 0 0 0 0 0 0 0 0 0 0 0 0 0 0 0 0 0 127 0" result="hardAlpha"/>
<feOffset/>
<feGaussianBlur stdDeviation="5"/>
<feComposite in2="hardAlpha" operator="out"/>
<feColorMatrix type="matrix" values="0 0 0 0 1 0 0 0 0 1 0 0 0 0 1 0 0 0 0.2 0"/>
<feBlend mode="normal" in2="BackgroundImageFix" result="effect1_dropShadow_9309_14062"/>
<feBlend mode="normal" in="SourceGraphic" in2="effect1_dropShadow_9309_14062" result="shape"/>
</filter>
<linearGradient id="paint0_linear_9309_14062" x1="24.8291" y1="10.5" x2="15.0624" y2="24.2413" gradientUnits="userSpaceOnUse">
<stop stop-color="white"/>
<stop offset="0.9999" stop-color="white" stop-opacity="0.421875"/>
<stop offset="1" stop-color="white" stop-opacity="0"/>
</linearGradient>
<linearGradient id="paint1_linear_9309_14062" x1="16.2588" y1="11.7196" x2="11.0093" y2="18.967" gradientUnits="userSpaceOnUse">
<stop stop-color="white"/>
<stop offset="1" stop-color="white" stop-opacity="0.56"/>
</linearGradient>
<linearGradient id="paint2_linear_9309_14062" x1="17.4833" y1="15.4666" x2="8.25907" y2="32.5967" gradientUnits="userSpaceOnUse">
<stop stop-color="white"/>
<stop offset="1" stop-color="white" stop-opacity="0"/>
</linearGradient>
</defs>
</svg>
